<?xml version="1.0" encoding="UTF-8" standalone="no"?>
<!DOCTYPE svg PUBLIC "-//W3C//DTD SVG 1.1//EN" "http://www.w3.org/Graphics/SVG/1.1/DTD/svg11.dtd">
<svg width="100%" height="100%" viewBox="0 0 3508 2481" version="1.1" xmlns="http://www.w3.org/2000/svg" xmlns:xlink="http://www.w3.org/1999/xlink" xml:space="preserve" xmlns:serif="http://www.serif.com/" style="fill-rule:evenodd;clip-rule:evenodd;stroke-linecap:round;stroke-linejoin:round;stroke-miterlimit:1.5;">
    <g transform="matrix(0.740527,0,0,0.740527,319.935,145.989)">
        <g id="Capa1">
            <g>
                <path d="M1729.01,1191.28L1740.94,1199.07L1741.91,1208.57L2327.1,1396.19L2327.1,1199.28L1753.94,1176.26L1729.01,1191.28Z" style="fill:none;stroke:black;stroke-width:1.35px;"/>
                <path d="M1723.69,1226.48L1744.08,1214.3L2327.24,1421.3L2325.76,1787.45L1723.69,1226.48Z" style="fill:none;stroke:black;stroke-width:1.35px;"/>
                <path d="M1697.29,1240.16L1712.15,1232L2111.19,1782.62L1805.78,1784.85L1697.29,1240.16Z" style="fill:none;stroke:black;stroke-width:1.35px;"/>
                <path d="M1675.56,1222.71L1655.49,1240.16L1415.11,1788.75L1779.22,1780.58L1687.07,1240.16L1675.56,1222.71Z" style="fill:none;stroke:black;stroke-width:1.35px;"/>
                <path d="M1657.54,1216.21L1392.26,1385.63L1394.86,1785.97L1657.54,1216.21Z" style="fill:none;stroke:black;stroke-width:1.35px;"/>
                <path d="M1389.95,1322.6L1660.12,1201.91L1665.63,1187.82L1660.73,1178.63L1392.4,1130.23L1389.95,1322.6Z" style="fill:none;stroke:black;stroke-width:1.35px;"/>
                <path d="M1676.21,1132.87L1472.8,638.695L1390.24,641.088L1390.24,1095.78L1666.64,1166.37L1677.41,1154.41L1676.21,1132.87Z" style="fill:none;stroke:black;stroke-width:1.35px;"/>
                <path d="M1702.54,1137.66L1552.97,639.891L2026.8,630.319L1716.9,1132.87L1702.54,1137.66Z" style="fill:none;stroke:black;stroke-width:1.35px;"/>
                <path d="M1702.54,1137.66L1552.97,639.891L2026.8,630.319L1716.9,1132.87L1702.54,1137.66Z"/>
                <path d="M1676.21,1132.87L1677.41,1154.41L1666.64,1166.37L1390.24,1095.78L1390.24,641.088L1472.8,638.695L1676.21,1132.87Z"/>
                <path d="M1389.95,1322.6L1392.4,1130.23L1660.73,1178.63L1665.63,1187.82L1660.12,1201.91L1389.95,1322.6Z"/>
                <path d="M1660.73,1178.63L1660.07,1200.81L1380.91,1333.73L1380.91,1127.59L1660.73,1178.63Z"/>
                <path d="M1660.73,1178.63L1380.91,1127.59L1380.91,1333.73L1660.07,1200.81L1660.73,1178.63Z" style="fill:none;stroke:black;stroke-width:1.35px;"/>
                <path d="M1657.54,1216.21L1394.86,1785.97L1392.26,1385.63L1657.54,1216.21Z"/>
                <path d="M1657.54,1216.21L1400.49,1785.17L1392.52,1784.56L1382.72,1784.56L1380.88,1384.51L1657.54,1216.21Z"/>
                <path d="M1657.54,1216.21L1380.88,1384.51L1382.72,1784.56L1392.52,1784.56L1400.49,1785.17L1657.54,1216.21Z" style="fill:none;stroke:black;stroke-width:1.35px;"/>
                <path d="M1675.56,1222.71L1687.07,1240.16L1779.22,1780.58L1415.11,1788.75L1655.49,1240.16L1675.56,1222.71Z"/>
                <path d="M1697.29,1240.16L1712.15,1232L2111.19,1782.62L1805.78,1784.85L1697.29,1240.16Z"/>
                <path d="M1723.69,1226.48L1744.08,1214.3L2327.24,1421.3L2325.76,1787.45L1723.69,1226.48Z"/>
                <path d="M2325.76,1787.45L2214.8,1786.74L1728.7,1240.16L2046.54,1438.99L2325.76,1787.45Z"/>
                <path d="M2325.76,1787.45L2214.8,1786.74L1728.7,1240.16L2046.54,1438.99L2325.76,1787.45Z" style="fill:none;stroke:black;stroke-width:1.35px;"/>
                <path d="M1729.01,1191.28L1753.94,1176.26L2327.1,1199.28L2327.1,1396.19L1741.91,1208.57L1740.94,1199.07L1729.01,1191.28Z"/>
                <path d="M1725.56,1134.96L2050.3,630.624L2329.68,623.367L2322.43,1162.18L1753.94,1165.81L1725.56,1134.96Z" style="stroke:black;stroke-width:1.35px;"/>
                <path d="M1987.58,684.845L2032,622.051" style="fill:none;stroke:black;stroke-width:1.35px;"/>
                <path d="M1544.95,624.496L2032.76,621.285L1962.31,732.324L1574.82,703.99L1544.95,624.496Z"/>
                <path d="M1544.95,624.496L1574.82,703.99L1962.31,732.324L2032.76,621.285L1544.95,624.496Z" style="fill:none;stroke:black;stroke-width:1.35px;"/>
                <path d="M1476.57,646.68L1406.3,1100.79L1381.52,1092.01L1382.15,624.096L1467.47,625.037L1476.57,646.68Z"/>
                <path d="M1476.57,646.68L1467.47,625.037L1382.15,624.096L1381.52,1092.01L1406.3,1100.79L1476.57,646.68Z" style="fill:none;stroke:black;stroke-width:1.35px;"/>
            </g>
        </g>
    </g>
    <g id="Capa2">
        <g transform="matrix(1,0,0,1,-8.76386,625.149)">
            <path d="M994.013,1022L1004.48,987.594L872.862,978.62" style="fill:none;stroke:black;stroke-width:1px;"/>
        </g>
        <g transform="matrix(1,0,0,1,-8.76386,625.149)">
            <path d="M872.862,978.62L1005.86,987.517L992.625,1020.35L862.747,993.889L872.862,978.62Z"/>
        </g>
        <g transform="matrix(1,0,0,1,-8.76386,625.149)">
            <path d="M872.862,978.62L862.747,993.889L992.625,1020.35L1005.86,987.517L872.862,978.62Z" style="fill:none;stroke:black;stroke-width:1px;"/>
        </g>
        <g transform="matrix(1,0,0,1,-8.76386,625.149)">
            <path d="M864.269,996.145L994.013,1022" style="fill:none;stroke:black;stroke-width:1px;"/>
        </g>
        <g transform="matrix(1,0,0,1,-8.76386,625.149)">
            <path d="M864.269,996.145L873.246,977.626" style="fill:none;stroke:black;stroke-width:1px;"/>
        </g>
        <g transform="matrix(1,0,0,1,-8.76386,625.149)">
            <path d="M990.716,1028L990.226,1035.35L919.161,1039.76L918.18,1070.64L961.31,1075.54L965.721,1120.14L919.651,1119.65L916.71,1135.34L864.759,1135.34L864.759,1044.66L876.521,1042.7L876.031,1035.84L848.095,1032.41L855.937,1007.91L990.716,1028Z"/>
        </g>
        <g transform="matrix(1,0,0,1,-8.76386,625.149)">
            <path d="M990.716,1028L990.226,1035.35L919.161,1039.76L918.18,1070.64L961.31,1075.54L965.721,1120.14L919.651,1119.65L916.71,1135.34L864.759,1135.34L864.759,1044.66L876.521,1042.7L876.031,1035.84L848.095,1032.41L855.937,1007.91L990.716,1028Z" style="fill:none;stroke:black;stroke-width:1px;"/>
        </g>
        <g transform="matrix(1,0,0,1,-8.76386,625.149)">
            <path d="M865.249,1142.2L915.24,1145.63L917.2,1219.14L865.739,1201.5L865.249,1142.2Z" style="fill:none;stroke:black;stroke-width:1px;"/>
        </g>
        <g transform="matrix(1,0,0,1,-8.76386,625.149)">
            <path d="M1048.06,1000.07L1036.3,1033.39C1036.3,1033.39 1182.35,1066.72 1181.86,1067.21C1181.37,1067.7 1186.27,1017.22 1107.36,1000.56L1048.06,1000.07Z" style="fill:none;stroke:black;stroke-width:1px;"/>
        </g>
        <g transform="matrix(1,0,0,1,-8.76386,625.149)">
            <path d="M1090.7,1053.98L1094.13,1095.15L1115.69,1094.17C1115.69,1094.17 1125.01,1084.36 1122.56,1068.68L1175.98,1077.01C1175.98,1077.01 1179.9,1117.2 1143.14,1126.02L1161.27,1157.39L1041.69,1149.55L1038.26,1060.35L1051.98,1051.53L1090.7,1053.98Z" style="fill:none;stroke:black;stroke-width:1px;"/>
        </g>
        <g transform="matrix(1,0,0,1,-8.76386,625.149)">
            <path d="M1045.12,1159.96L1046.59,1200.15L1097.07,1219.76L1099.52,1167.81L1091.19,1158.49L1045.12,1159.96Z" style="fill:none;stroke:black;stroke-width:1px;"/>
        </g>
        <g transform="matrix(1,0,0,1,-8.76386,625.149)">
            <path d="M1105.89,1156.04L1096.14,1164.02L1146.57,1212.4C1146.57,1212.4 1188.72,1207.5 1190.68,1181.04L1177.45,1165.35L1115.2,1165.84L1105.89,1156.04Z" style="fill:none;stroke:black;stroke-width:1px;"/>
        </g>
        <g transform="matrix(1,0,0,1,-8.76386,625.149)">
            <path d="M1263.34,1004.84L1310.88,1025.43L1311.37,1000.43L1259.42,997.003L1263.34,1004.84Z" style="fill:none;stroke:black;stroke-width:1px;"/>
        </g>
        <g transform="matrix(1,0,0,1,-8.76386,625.149)">
            <path d="M1274.12,1022L1276.08,1047.97L1282.94,1047.97L1282.94,1028.37C1282.94,1028.37 1338.81,1029.35 1343.71,1100.41L1225.6,1075.42L1225.11,1020.04L1274.12,1022Z" style="fill:none;stroke:black;stroke-width:1px;"/>
        </g>
        <g transform="matrix(1,0,0,1,-8.76386,625.149)">
            <path d="M1274.61,1098.94L1276.08,1140.6L1287.35,1139.13L1290.29,1127.86L1283.43,1126.39L1283.43,1097.47L1340.77,1114.14L1344.2,1162.17L1363.32,1174.91L1290.29,1171.48L1291.76,1164.62L1222.66,1167.07L1223.15,1081.3L1274.61,1098.94Z" style="fill:none;stroke:black;stroke-width:1px;"/>
        </g>
        <g transform="matrix(1,0,0,1,-8.76386,625.149)">
            <path d="M1275.1,1186.67L1273.14,1218.04L1220.7,1199.91L1223.15,1175.4L1288.82,1173.44L1364.3,1182.26L1362.34,1205.79L1313.82,1205.3L1309.9,1189.12L1275.1,1186.67Z" style="fill:none;stroke:black;stroke-width:1px;"/>
        </g>
        <g transform="matrix(1,0,0,1,-8.76386,625.149)">
            <path d="M1515.24,1049.99L1525.54,1050.97L1523.57,1007.84L1472.11,1004.9L1474.07,1016.66L1515.24,1049.99Z" style="fill:none;stroke:black;stroke-width:1px;"/>
        </g>
        <g transform="matrix(1,0,0,1,-8.76386,625.149)">
            <path d="M1512.3,1056.36L1448.1,1003.43C1448.1,1003.43 1406.44,1024.51 1391.74,1052.93L1439.28,1073.52L1462.8,1054.4L1512.3,1056.36Z" style="fill:none;stroke:black;stroke-width:1px;"/>
        </g>
        <g transform="matrix(1,0,0,1,-8.76386,625.149)">
            <path d="M1440.26,1093.61L1436.83,1128.41L1382.42,1114.19L1387.82,1074.01L1440.26,1093.61Z" style="fill:none;stroke:black;stroke-width:1px;"/>
        </g>
        <g transform="matrix(1,0,0,1,-8.76386,625.149)">
            <path d="M1384.87,1123.02C1384.87,1123.02 1382.91,1158.31 1400.07,1182.32L1515.73,1187.71L1525.54,1155.85L1487.8,1149.48L1483.38,1140.66L1474.07,1141.64L1472.6,1150.95L1441.24,1148.5L1425.06,1129.88L1384.87,1123.02Z" style="fill:none;stroke:black;stroke-width:1px;"/>
        </g>
        <g transform="matrix(1,0,0,1,-8.76386,625.149)">
            <path d="M1404.67,1182.54L1420.65,1199.96L1487.31,1202.41L1471.62,1188.2L1408.89,1187.14" style="fill:none;stroke:black;stroke-width:1px;"/>
        </g>
        <g transform="matrix(1,0,0,1,-8.76386,625.149)">
            <path d="M1526.03,1141.15C1526.03,1141.15 1503.97,1120.57 1473.09,1106.35L1457.9,1104.88L1458.39,1125.96L1491.72,1139.68L1526.03,1141.15Z" style="fill:none;stroke:black;stroke-width:1px;"/>
        </g>
        <g transform="matrix(1,0,0,1,-8.76386,625.149)">
            <path d="M1506.42,1112.73C1530.93,1132.33 1519.16,1112.73 1519.16,1112.73L1517.2,1076.95L1451.53,1075.97L1450.55,1085.77C1450.55,1085.77 1481.91,1093.12 1506.42,1112.73Z" style="fill:none;stroke:black;stroke-width:1px;"/>
        </g>
        <g transform="matrix(1,0,0,1,-8.76386,625.149)">
            <path d="M1519.16,1112.73L1506.42,1112.73" style="fill:none;stroke:black;stroke-width:1px;"/>
        </g>
        <g transform="matrix(1,0,0,1,-8.76386,625.149)">
            <path d="M1610.32,1218.59L1606.89,1175.46L1558.37,1164.68L1557.39,1203.39L1610.32,1218.59Z" style="fill:none;stroke:black;stroke-width:1px;"/>
        </g>
        <g transform="matrix(1,0,0,1,-8.76386,625.149)">
            <path d="M1662.27,1203.39L1561.8,1138.21L1558.86,1088.71L1683.84,1176.93L1673.06,1180.85L1662.27,1203.39Z" style="fill:none;stroke:black;stroke-width:1px;"/>
        </g>
        <g transform="matrix(1,0,0,1,-8.76386,625.149)">
            <path d="M1684.33,1167.13L1552.98,1074.99L1550.53,1014.7L1607.38,1018.13L1648.55,1100.47L1682.37,1035.29L1712.27,1152.91L1684.33,1167.13Z" style="fill:none;stroke:black;stroke-width:1px;"/>
        </g>
        <g transform="matrix(1,0,0,1,-8.76386,625.149)">
            <path d="M1720.6,1150.46L1695.11,1021.08L1747.06,1020.59L1748.04,1174.97L1733.34,1172.03L1720.6,1150.46Z" style="fill:none;stroke:black;stroke-width:1px;"/>
        </g>
        <g transform="matrix(1,0,0,1,-8.76386,625.149)">
            <path d="M1738,1191.63L1741.43,1207.32L1753.94,1205.85L1748.29,1191.63L1738,1191.63Z" style="stroke:black;stroke-width:1px;"/>
        </g>
        <g transform="matrix(1,0,0,1,-8.76386,625.149)">
            <path d="M1769.36,1124.98L1772.79,1068.62L1753.94,1066.65L1774.26,1014.7L1849.25,1016.66L1769.36,1124.98Z" style="fill:none;stroke:black;stroke-width:1px;"/>
        </g>
        <g transform="matrix(1,0,0,1,-8.76386,625.149)">
            <path d="M1769.36,1142.62L1856.6,1020.59L1910.51,1024.51L1886.99,1072.54L1825.23,1076.46L1825.23,1093.61L1846.8,1097.04L1770.34,1169.09L1769.36,1142.62Z" style="fill:none;stroke:black;stroke-width:1px;"/>
        </g>
        <g transform="matrix(1,0,0,1,-8.76386,625.149)">
            <path d="M1772.3,1176.93L1770.83,1187.71L1829.64,1161.74L1825.72,1146.54L1883.56,1143.11L1883.56,1102.43L1857.09,1097.53L1772.3,1176.93Z" style="fill:none;stroke:black;stroke-width:1px;"/>
        </g>
        <g transform="matrix(1,0,0,1,-8.76386,625.149)">
            <path d="M1768.87,1198.98L1849.25,1160.27L1883.07,1157.82L1881.6,1199.47L1771.81,1204.87L1768.87,1198.98Z" style="fill:none;stroke:black;stroke-width:1px;"/>
        </g>
        <g transform="matrix(1,0,0,1,-8.76386,625.149)">
            <path d="M1933.31,1113.68L1936.99,1023.62L1980.48,1022.4L2008.66,1075.7L1933.31,1113.68Z" style="fill:none;stroke:black;stroke-width:1px;"/>
        </g>
        <g transform="matrix(1,0,0,1,-8.76386,625.149)">
            <path d="M1995.19,1151.05L1990.29,1166.98L1940.05,1171.88L1936.99,1121.03L2074.22,1059.77L2076.67,1151.05L2014.18,1165.76L1995.19,1151.05Z" style="fill:none;stroke:black;stroke-width:1px;"/>
        </g>
        <g transform="matrix(1,0,0,1,-8.76386,625.149)">
            <path d="M1990.29,1177.4L1941.28,1180.46L1939.44,1200.68L1993.35,1222.12L1990.29,1177.4Z" style="fill:none;stroke:black;stroke-width:1px;"/>
        </g>
        <g transform="matrix(1,0,0,1,-8.76386,625.149)">
            <path d="M2014.18,1071.41L2015.4,1006.47L2066.25,1025.46L2067.48,1052.42L2014.18,1071.41Z" style="fill:none;stroke:black;stroke-width:1px;"/>
        </g>
        <g transform="matrix(1,0,0,1,-8.76386,625.149)">
            <path d="M2020.92,1174.95L2028.88,1198.84L2071.15,1201.9L2075.44,1162.08L2020.92,1174.95Z" style="fill:none;stroke:black;stroke-width:1px;"/>
        </g>
        <g transform="matrix(1,0,0,1,-8.76386,625.149)">
            <path d="M2099.95,1042.62L2137.93,1021.79L2102.4,1018.72L2099.95,1042.62Z" style="fill:none;stroke:black;stroke-width:1px;"/>
        </g>
        <g transform="matrix(1,0,0,1,-8.76386,625.149)">
            <path d="M2084.63,1063.45L2153.86,1020.56L2251.88,1022.4L2234.73,1068.35L2198.58,1073.25L2195.52,1136.35L2144.67,1143.09L2143.45,1081.83L2161.82,1076.92L2161.82,1067.74L2084.63,1072.64L2084.63,1063.45Z" style="fill:none;stroke:black;stroke-width:1px;"/>
        </g>
        <g transform="matrix(1,0,0,1,-8.76386,625.149)">
            <path d="M2145.89,1152.89L2144.67,1200.06L2196.74,1217.83L2196.74,1145.54L2145.89,1152.89Z" style="fill:none;stroke:black;stroke-width:1px;"/>
        </g>
        <g transform="matrix(1,0,0,1,-8.76386,625.149)">
            <path d="M2296.14,1075.09L2264.29,1073.86L2283.28,1024.24L2419.89,1023.01L2396,1067.74L2335.35,1076.31L2334.74,1095.3L2386.2,1100.82L2386.81,1109.39L2342.7,1108.78L2279.6,1117.36L2280.83,1086.73L2295.53,1085.5L2296.14,1075.09Z" style="fill:none;stroke:black;stroke-width:1px;"/>
        </g>
        <g transform="matrix(1,0,0,1,-8.76386,625.149)">
            <path d="M2289.4,1138.19L2288.79,1210.48L2397.84,1212.32L2404.58,1168.82L2343.32,1166.37L2342.7,1153.5L2399.68,1149.83L2397.84,1111.84L2289.4,1138.19Z" style="fill:none;stroke:black;stroke-width:1px;"/>
        </g>
        <g transform="matrix(1,0,0,1,-8.76386,625.149)">
            <path d="M2463.39,1079.99L2465.23,1059.77L2481.16,1059.77L2481.77,1048.74L2450.53,1050.58L2460.94,1004.02C2460.94,1004.02 2576.73,975.84 2600.01,1051.81L2552.22,1069.57C2552.22,1069.57 2533.23,1051.81 2519.14,1070.18L2463.39,1079.99Z" style="fill:none;stroke:black;stroke-width:1px;"/>
        </g>
        <g transform="matrix(1,0,0,1,-8.76386,625.149)">
            <path d="M2456.04,1100.2L2457.26,1202.51C2457.26,1202.51 2617.16,1205.58 2598.78,1075.09L2551,1086.73C2551,1086.73 2552.22,1123.48 2512.4,1128.38L2509.95,1091.63L2456.04,1100.2Z" style="fill:none;stroke:black;stroke-width:1px;"/>
        </g>
        <g transform="matrix(1,0,0,1,-8.76386,625.149)">
            <path d="M1600.81,1258.72L1559.15,1287.52L1556.08,1260.56L1600.81,1258.72Z" style="fill:none;stroke:black;stroke-width:1px;"/>
        </g>
        <g transform="matrix(1,0,0,1,-8.76386,625.149)">
            <path d="M1584.26,1283.84L1600.19,1291.19L1535.25,1350.01L1533.42,1312.63L1584.26,1283.84Z" style="fill:none;stroke:black;stroke-width:1px;"/>
        </g>
        <g transform="matrix(1,0,0,1,-8.76386,625.149)">
            <path d="M1621.63,1289.36L1559.15,1343.88L1557.31,1435.16L1606.93,1456.6L1613.06,1387.99L1643.69,1437.61L1660.23,1438.22L1701.89,1266.08L1694.54,1259.95L1660.23,1341.43L1649.82,1344.49L1621.63,1289.36Z" style="fill:none;stroke:black;stroke-width:1px;"/>
        </g>
        <g transform="matrix(1,0,0,1,-8.76386,625.149)">
            <path d="M1669.42,1437.61L1710.1,1269.51L1744.9,1274.41L1746.86,1471.43L1699.32,1452.32L1699.32,1406.25L1693.43,1404.28L1684.12,1440.55L1669.42,1437.61Z" style="fill:none;stroke:black;stroke-width:1px;"/>
        </g>
        <g transform="matrix(1,0,0,1,-8.76386,625.149)">
            <path d="M1773.81,1255.29L1763.52,1312.63L1783.12,1310.18L1785.58,1319.01L1770.87,1320.48L1822.82,1438.1L1885.07,1441.53L1884.09,1395.46L1823.31,1393.01L1823.8,1379.29L1885.07,1379.78L1883.11,1333.71L1825.27,1330.28L1821.84,1311.65L1841.45,1311.65L1773.81,1255.29Z" style="fill:none;stroke:black;stroke-width:1px;"/>
        </g>
        <g transform="matrix(1,0,0,1,-8.76386,625.149)">
            <path d="M1772.34,1339.59L1768.91,1437.61L1814,1439.57L1772.34,1339.59Z" style="fill:none;stroke:black;stroke-width:1px;"/>
        </g>
        <g transform="matrix(1,0,0,1,-8.76386,625.149)">
            <path d="M1795.38,1259.21L1852.23,1306.75L1892.42,1308.22L1914.47,1261.17L1795.38,1259.21Z" style="fill:none;stroke:black;stroke-width:1px;"/>
        </g>
        <g transform="matrix(1,0,0,1,-8.76386,625.149)">
            <path d="M1939.1,1256.27L1937.63,1273.43L2007.72,1290.58L2010.17,1277.84L1981.25,1258.23L1939.1,1256.27Z" style="fill:none;stroke:black;stroke-width:1px;"/>
        </g>
        <g transform="matrix(1,0,0,1,-8.76386,625.149)">
            <path d="M1938.12,1280.78L1939.1,1377.82L1990.07,1409.18L1993.99,1388.6L2023.4,1437.61L2047.41,1438.59L2072.9,1403.3L2079.76,1402.81L2082.21,1443L2124.36,1455.26L2126.32,1327.34L2059.67,1308.22L2042.51,1348.9L2031.73,1348.41L2012.62,1295.97L1938.12,1280.78Z" style="fill:none;stroke:black;stroke-width:1px;"/>
        </g>
        <g transform="matrix(1,0,0,1,-8.76386,625.149)">
            <path d="M1938.12,1386.64L1936.16,1437.61L1989.58,1456.24L1991.05,1425.36L1938.12,1386.64Z" style="fill:none;stroke:black;stroke-width:1px;"/>
        </g>
        <g transform="matrix(1,0,0,1,-8.76386,625.149)">
            <path d="M2071.43,1275.88L2068,1299.4L2125.83,1318.03L2129.26,1291.56L2071.43,1275.88Z" style="fill:none;stroke:black;stroke-width:1px;"/>
        </g>
        <g transform="matrix(1,0,0,1,-8.76386,625.149)">
            <path d="M2077.8,1258.23L2077.8,1268.04L2124.85,1282.74L2128.28,1259.7L2077.8,1258.23Z" style="fill:none;stroke:black;stroke-width:1px;"/>
        </g>
        <g transform="matrix(1,0,0,1,-8.76386,625.149)">
            <path d="M2175.33,1285.19C2175.33,1285.19 2237.58,1218.53 2285.61,1300.87L2175.33,1285.19Z" style="fill:none;stroke:black;stroke-width:1px;"/>
        </g>
        <g transform="matrix(1,0,0,1,-8.76386,625.149)">
            <path d="M2207.19,1298.91L2153.28,1289.11C2153.28,1289.11 2136.12,1308.22 2134.65,1321.46L2195.43,1335.18L2207.19,1298.91Z" style="fill:none;stroke:black;stroke-width:1px;"/>
        </g>
        <g transform="matrix(1,0,0,1,-8.76386,625.149)">
            <path d="M2144.95,1346.45L2146.91,1404.78C2146.91,1404.78 2152.79,1438.59 2199.35,1448.88C2245.91,1459.18 2260.12,1433.2 2260.12,1433.2C2260.12,1433.2 2282.18,1423.4 2288.06,1371.45L2237.58,1365.57C2237.58,1365.57 2235.12,1384.19 2217.48,1392.03C2217.48,1392.03 2193.96,1384.68 2196.9,1353.8L2144.95,1346.45Z" style="fill:none;stroke:black;stroke-width:1px;"/>
        </g>
        <g transform="matrix(1,0,0,1,-8.76386,625.149)">
            <path d="M2224.34,1306.26C2224.34,1306.26 2234.64,1335.18 2232.18,1348.41L2280.7,1357.72L2281.2,1315.09" style="fill:none;stroke:black;stroke-width:1px;"/>
        </g>
        <g transform="matrix(1,0,0,1,-8.76386,625.149)">
            <path d="M2281.2,1315.09L2224.34,1306.26" style="fill:none;stroke:black;stroke-width:1px;"/>
        </g>
        <g transform="matrix(1,0,0,1,-8.76386,625.149)">
            <path d="M2302.15,1284.7L2325.18,1286.66L2325.67,1293.52L2313.42,1295.97L2311.95,1309.2L2362.92,1317.54L2365.37,1298.42C2365.37,1298.42 2391.35,1293.03 2393.8,1302.83C2396.25,1312.63 2398.21,1321.95 2394.78,1321.46L2447.71,1334.2C2447.71,1334.2 2458.49,1265.58 2396.74,1246.47L2310.97,1240.16L2302.15,1284.7Z" style="fill:none;stroke:black;stroke-width:1px;"/>
        </g>
        <g transform="matrix(1,0,0,1,-8.76386,625.149)">
            <path d="M2321.26,1319.5L2319.79,1362.62L2439.38,1394.48L2421.24,1369.98L2448.2,1344L2321.26,1319.5Z" style="fill:none;stroke:black;stroke-width:1px;"/>
        </g>
        <g transform="matrix(1,0,0,1,-8.76386,625.149)">
            <path d="M2308.52,1373.41L2305.58,1436.14L2351.16,1456.73L2357.53,1405.76L2404.09,1448.88C2404.09,1448.88 2450.65,1442.02 2448.2,1414.09L2308.52,1373.41Z" style="fill:none;stroke:black;stroke-width:1px;"/>
        </g>
        <g transform="matrix(1,0,0,1,-8.76386,625.149)">
            <path d="M2465.84,1252.35L2513.87,1240.16L2546.71,1309.69L2554.06,1311.16L2559.45,1252.35L2616.8,1253.33L2572.2,1350.86L2503.09,1335.67L2465.84,1252.35Z" style="fill:none;stroke:black;stroke-width:1px;"/>
        </g>
        <g transform="matrix(1,0,0,1,-8.76386,625.149)">
            <path d="M2510.93,1349.88L2564.35,1362.62L2528.09,1419.48L2485.45,1404.28L2503.58,1379.78L2510.93,1349.88Z" style="fill:none;stroke:black;stroke-width:1px;"/>
        </g>
        <g transform="matrix(1,0,0,1,-8.76386,625.149)">
            <path d="M2472.21,1424.38L2525.14,1439.08L2518.28,1448.88L2462.41,1448.88L2472.21,1424.38Z" style="fill:none;stroke:black;stroke-width:1px;"/>
        </g>
        <g transform="matrix(1,0,0,1,-8.76386,625.149)">
            <path d="M1600.81,1258.72L1559.15,1287.52L1556.08,1260.56L1600.81,1258.72Z"/>
        </g>
        <g transform="matrix(1,0,0,1,-8.76386,625.149)">
            <path d="M1584.26,1283.84L1600.19,1291.19L1535.25,1350.01L1533.42,1312.63L1584.26,1283.84Z" style="fill:rgb(130,4,4);"/>
        </g>
        <g transform="matrix(1,0,0,1,-8.76386,625.149)">
            <path d="M1621.63,1289.36L1649.82,1344.49L1660.23,1341.43L1694.54,1259.95L1701.89,1266.08L1660.23,1438.22L1643.69,1437.61L1613.06,1387.99L1606.93,1456.6L1557.31,1435.16L1559.15,1343.88L1621.63,1289.36Z"/>
        </g>
        <g transform="matrix(1,0,0,1,-8.76386,625.149)">
            <path d="M1669.42,1437.61L1710.1,1269.51L1744.9,1274.41L1746.86,1471.43L1699.32,1452.32L1699.32,1406.25L1693.43,1404.28L1684.12,1440.55L1669.42,1437.61Z"/>
        </g>
        <g transform="matrix(1,0,0,1,-8.76386,625.149)">
            <path d="M1772.34,1339.59L1814,1439.57L1768.91,1437.61L1772.34,1339.59Z"/>
        </g>
        <g transform="matrix(1,0,0,1,-8.76386,625.149)">
            <path d="M1795.38,1259.21L1914.47,1261.17L1892.42,1308.22L1852.23,1306.75L1795.38,1259.21Z"/>
        </g>
        <g transform="matrix(1,0,0,1,-8.76386,625.149)">
            <path d="M1773.81,1255.29L1841.45,1311.65L1821.84,1311.65L1825.27,1330.28L1883.11,1333.71L1885.07,1379.78L1823.8,1379.29L1823.31,1393.01L1884.09,1395.46L1885.07,1441.53L1822.82,1438.1L1770.87,1320.48L1785.58,1319.01L1783.12,1310.18L1763.52,1312.63L1773.81,1255.29Z"/>
        </g>
        <g transform="matrix(1,0,0,1,-8.76386,625.149)">
            <path d="M1938.12,1386.64L1991.05,1425.36L1989.58,1456.24L1936.16,1437.61L1938.12,1386.64Z"/>
        </g>
        <g transform="matrix(1,0,0,1,-8.76386,625.149)">
            <path d="M1939.1,1256.27L1981.25,1258.23L2010.17,1277.84L2007.72,1290.58L1937.63,1273.43L1939.1,1256.27Z"/>
        </g>
        <g transform="matrix(1,0,0,1,-8.76386,625.149)">
            <path d="M2077.8,1258.23L2128.28,1259.7L2124.85,1282.74L2077.8,1268.04L2077.8,1258.23Z"/>
        </g>
        <g transform="matrix(1,0,0,1,-8.76386,625.149)">
            <path d="M2071.43,1275.88L2129.26,1291.56L2125.83,1318.03L2068,1299.4L2071.43,1275.88Z"/>
        </g>
        <g transform="matrix(1,0,0,1,-8.76386,625.149)">
            <path d="M1938.12,1280.78L2012.62,1295.97L2031.73,1348.41L2042.51,1348.9L2059.67,1308.22L2126.32,1327.34L2124.36,1455.26L2082.21,1443L2079.76,1402.81L2072.9,1403.3L2047.41,1438.59L2023.4,1437.61L1993.99,1388.6L1990.07,1409.18L1939.1,1377.82L1938.12,1280.78Z"/>
        </g>
        <g transform="matrix(1,0,0,1,-8.76386,625.149)">
            <path d="M2207.19,1298.91L2195.43,1335.18L2134.65,1321.46C2136.12,1308.22 2153.28,1289.11 2153.28,1289.11L2207.19,1298.91Z"/>
        </g>
        <g transform="matrix(1,0,0,1,-8.76386,625.149)">
            <path d="M2175.33,1285.19C2175.33,1285.19 2237.58,1218.53 2285.61,1300.87L2175.33,1285.19Z"/>
        </g>
        <g transform="matrix(1,0,0,1,-8.76386,625.149)">
            <path d="M2281.2,1315.09L2280.7,1357.72L2232.18,1348.41C2234.64,1335.18 2224.34,1306.26 2224.34,1306.26L2281.2,1315.09Z"/>
        </g>
        <g transform="matrix(1,0,0,1,-8.76386,625.149)">
            <path d="M2144.95,1346.45L2196.9,1353.8C2193.96,1384.68 2217.48,1392.03 2217.48,1392.03C2235.12,1384.19 2237.58,1365.57 2237.58,1365.57L2288.06,1371.45C2282.18,1423.4 2260.12,1433.2 2260.12,1433.2C2260.12,1433.2 2245.91,1459.18 2199.35,1448.88C2152.79,1438.59 2146.91,1404.78 2146.91,1404.78L2144.95,1346.45Z"/>
        </g>
        <g transform="matrix(1,0,0,1,-8.76386,625.149)">
            <path d="M2302.15,1284.7L2310.97,1240.16L2396.74,1246.47C2458.49,1265.58 2447.71,1334.2 2447.71,1334.2L2394.78,1321.46C2398.21,1321.95 2396.25,1312.63 2393.8,1302.83C2391.35,1293.03 2365.37,1298.42 2365.37,1298.42L2362.92,1317.54L2311.95,1309.2L2313.42,1295.97L2325.67,1293.52L2325.18,1286.66L2302.15,1284.7Z"/>
        </g>
        <g transform="matrix(1,0,0,1,-8.76386,625.149)">
            <path d="M2321.26,1319.5L2448.2,1344L2421.24,1369.98L2439.38,1394.48L2319.79,1362.62L2321.26,1319.5Z"/>
        </g>
        <g transform="matrix(1,0,0,1,-8.76386,625.149)">
            <path d="M2308.52,1373.41L2448.2,1414.09C2450.65,1442.02 2404.09,1448.88 2404.09,1448.88L2357.53,1405.76L2351.16,1456.73L2305.58,1436.14L2308.52,1373.41Z"/>
        </g>
        <g transform="matrix(1,0,0,1,-8.76386,625.149)">
            <path d="M2472.21,1424.38L2525.14,1439.08L2518.28,1448.88L2462.41,1448.88L2472.21,1424.38Z"/>
        </g>
        <g transform="matrix(1,0,0,1,-8.76386,625.149)">
            <path d="M2510.93,1349.88L2564.35,1362.62L2528.09,1419.48L2485.45,1404.28L2503.58,1379.78L2510.93,1349.88Z"/>
        </g>
        <g transform="matrix(1,0,0,1,-8.76386,625.149)">
            <path d="M2465.84,1252.35L2513.87,1240.16L2546.71,1309.69L2554.06,1311.16L2559.45,1252.35L2616.8,1253.33L2572.2,1350.86L2503.09,1335.67L2465.84,1252.35Z"/>
        </g>
        <g transform="matrix(1,0,0,1,-8.76386,625.149)">
            <path d="M2463.39,1079.99L2465.23,1059.77L2481.16,1059.77L2481.77,1048.74L2450.53,1050.58L2460.94,1004.02C2460.94,1004.02 2576.73,975.84 2600.01,1051.81L2552.22,1069.57C2552.22,1069.57 2533.23,1051.81 2519.14,1070.18L2463.39,1079.99Z"/>
        </g>
        <g transform="matrix(1,0,0,1,-8.76386,625.149)">
            <path d="M2456.04,1100.2L2509.95,1091.63L2512.4,1128.38C2552.22,1123.48 2551,1086.73 2551,1086.73L2598.78,1075.09C2617.16,1205.58 2457.26,1202.51 2457.26,1202.51L2456.04,1100.2Z"/>
        </g>
        <g transform="matrix(1,0,0,1,-8.76386,625.149)">
            <path d="M2289.4,1138.19L2397.84,1111.84L2399.68,1149.83L2342.7,1153.5L2343.32,1166.37L2404.58,1168.82L2397.84,1212.32L2288.79,1210.48L2289.4,1138.19Z"/>
        </g>
        <g transform="matrix(1,0,0,1,-8.76386,625.149)">
            <path d="M2296.14,1075.09L2264.29,1073.86L2283.28,1024.24L2419.89,1023.01L2396,1067.74L2335.35,1076.31L2334.74,1095.3L2386.2,1100.82L2386.81,1109.39L2342.7,1108.78L2279.6,1117.36L2280.83,1086.73L2295.53,1085.5L2296.14,1075.09Z"/>
        </g>
        <g transform="matrix(1,0,0,1,-8.76386,625.149)">
            <path d="M2145.89,1152.89L2196.74,1145.54L2196.74,1217.83L2144.67,1200.06L2145.89,1152.89Z"/>
        </g>
        <g transform="matrix(1,0,0,1,-8.76386,625.149)">
            <path d="M2084.63,1063.45L2153.86,1020.56L2251.88,1022.4L2234.73,1068.35L2198.58,1073.25L2195.52,1136.35L2144.67,1143.09L2143.45,1081.83L2161.82,1076.92L2161.82,1067.74L2084.63,1072.64L2084.63,1063.45Z"/>
        </g>
        <g transform="matrix(1,0,0,1,-8.76386,625.149)">
            <path d="M2099.95,1042.62L2102.4,1018.72L2137.93,1021.79L2099.95,1042.62Z"/>
        </g>
        <g transform="matrix(1,0,0,1,-8.76386,625.149)">
            <path d="M2014.18,1071.41L2015.4,1006.47L2066.25,1025.46L2067.48,1052.42L2014.18,1071.41Z"/>
        </g>
        <g transform="matrix(1,0,0,1,-8.76386,625.149)">
            <path d="M2020.92,1174.95L2075.44,1162.08L2071.15,1201.9L2028.88,1198.84L2020.92,1174.95Z"/>
        </g>
        <g transform="matrix(1,0,0,1,-8.76386,625.149)">
            <path d="M1990.29,1177.4L1993.35,1222.12L1939.44,1200.68L1941.28,1180.46L1990.29,1177.4Z"/>
        </g>
        <g transform="matrix(1,0,0,1,-8.76386,625.149)">
            <path d="M1995.19,1151.05L1990.29,1166.98L1940.05,1171.88L1936.99,1121.03L2074.22,1059.77L2076.67,1151.05L2014.18,1165.76L1995.19,1151.05Z"/>
        </g>
        <g transform="matrix(1,0,0,1,-8.76386,625.149)">
            <path d="M1933.31,1113.68L1936.99,1023.62L1980.48,1022.4L2008.66,1075.7L1933.31,1113.68Z"/>
        </g>
        <g transform="matrix(1,0,0,1,-8.76386,625.149)">
            <path d="M1768.87,1198.98L1849.25,1160.27L1883.07,1157.82L1881.6,1199.47L1771.81,1204.87L1768.87,1198.98Z"/>
        </g>
        <g transform="matrix(1,0,0,1,-8.76386,625.149)">
            <path d="M1772.3,1176.93L1857.09,1097.53L1883.56,1102.43L1883.56,1143.11L1825.72,1146.54L1829.64,1161.74L1770.83,1187.71L1772.3,1176.93Z"/>
        </g>
        <g transform="matrix(1,0,0,1,-8.76386,625.149)">
            <path d="M1769.36,1142.62L1856.6,1020.59L1910.51,1024.51L1886.99,1072.54L1825.23,1076.46L1825.23,1093.61L1846.8,1097.04L1770.34,1169.09L1769.36,1142.62Z"/>
        </g>
        <g transform="matrix(1,0,0,1,-8.76386,625.149)">
            <path d="M1769.36,1124.98L1772.79,1068.62L1753.94,1066.65L1774.26,1014.7L1849.25,1016.66L1769.36,1124.98Z"/>
        </g>
        <g transform="matrix(1,0,0,1,-8.76386,625.149)">
            <path d="M1720.6,1150.46L1695.11,1021.08L1747.06,1020.59L1748.04,1174.97L1733.34,1172.03L1720.6,1150.46Z"/>
        </g>
        <g transform="matrix(1,0,0,1,-8.76386,625.149)">
            <path d="M1684.33,1167.13L1552.98,1074.99L1550.53,1014.7L1607.38,1018.13L1648.55,1100.47L1682.37,1035.29L1712.27,1152.91L1684.33,1167.13Z"/>
        </g>
        <g transform="matrix(1,0,0,1,-8.76386,625.149)">
            <path d="M1662.27,1203.39L1561.8,1138.21L1558.86,1088.71L1683.84,1176.93L1673.06,1180.85L1662.27,1203.39Z"/>
        </g>
        <g transform="matrix(1,0,0,1,-8.76386,625.149)">
            <path d="M1610.32,1218.59L1557.39,1203.39L1558.37,1164.68L1606.89,1175.46L1610.32,1218.59Z"/>
        </g>
        <g transform="matrix(1,0,0,1,-8.76386,625.149)">
            <path d="M1515.24,1049.99L1474.07,1016.66L1472.11,1004.9L1523.57,1007.84L1525.54,1050.97L1515.24,1049.99Z"/>
        </g>
        <g transform="matrix(1,0,0,1,-8.76386,625.149)">
            <path d="M1512.3,1056.36L1462.8,1054.4L1439.28,1073.52L1391.74,1052.93C1406.44,1024.51 1448.1,1003.43 1448.1,1003.43L1512.3,1056.36Z"/>
        </g>
        <g transform="matrix(1,0,0,1,-8.76386,625.149)">
            <path d="M1506.42,1112.73L1519.16,1112.73C1519.16,1112.73 1530.93,1132.33 1506.42,1112.73Z"/>
        </g>
        <g transform="matrix(1,0,0,1,-8.76386,625.149)">
            <path d="M1519.16,1112.73L1506.42,1112.73C1481.91,1093.12 1450.55,1085.77 1450.55,1085.77L1451.53,1075.97L1517.2,1076.95L1519.16,1112.73Z"/>
        </g>
        <g transform="matrix(1,0,0,1,-8.76386,625.149)">
            <path d="M1440.26,1093.61L1436.83,1128.41L1382.42,1114.19L1387.82,1074.01L1440.26,1093.61Z"/>
        </g>
        <g transform="matrix(1,0,0,1,-8.76386,625.149)">
            <path d="M1526.03,1141.15L1491.72,1139.68L1458.39,1125.96L1457.9,1104.88L1473.09,1106.35C1503.97,1120.57 1526.03,1141.15 1526.03,1141.15Z"/>
        </g>
        <g transform="matrix(1,0,0,1,-8.76386,625.149)">
            <path d="M1400.07,1182.32C1382.91,1158.31 1384.87,1123.02 1384.87,1123.02L1425.06,1129.88L1441.24,1148.5L1472.6,1150.95L1474.07,1141.64L1483.38,1140.66L1487.8,1149.48L1525.54,1155.85L1515.73,1187.71L1400.07,1182.32Z"/>
        </g>
        <g transform="matrix(1,0,0,1,-8.76386,625.149)">
            <path d="M1408.89,1187.14L1471.62,1188.2L1487.31,1202.41L1420.65,1199.96L1408.89,1187.14Z"/>
        </g>
        <g transform="matrix(1,0,0,1,-8.76386,625.149)">
            <path d="M1275.1,1186.67L1273.14,1218.04L1220.7,1199.91L1223.15,1175.4L1288.82,1173.44L1364.3,1182.26L1362.34,1205.79L1313.82,1205.3L1309.9,1189.12L1275.1,1186.67Z"/>
        </g>
        <g transform="matrix(1,0,0,1,-8.76386,625.149)">
            <path d="M1274.61,1098.94L1276.08,1140.6L1287.35,1139.13L1290.29,1127.86L1283.43,1126.39L1283.43,1097.47L1340.77,1114.14L1344.2,1162.17L1363.32,1174.91L1290.29,1171.48L1291.76,1164.62L1222.66,1167.07L1223.15,1081.3L1274.61,1098.94Z"/>
        </g>
        <g transform="matrix(1,0,0,1,-8.76386,625.149)">
            <path d="M1263.34,1004.84L1259.42,997.003L1311.37,1000.43L1310.88,1025.43L1263.34,1004.84Z"/>
        </g>
        <g transform="matrix(1,0,0,1,-8.76386,625.149)">
            <path d="M1274.12,1022L1276.08,1047.97L1282.94,1047.97L1282.94,1028.37C1282.94,1028.37 1338.81,1029.35 1343.71,1100.41L1225.6,1075.42L1225.11,1020.04L1274.12,1022Z"/>
        </g>
        <g transform="matrix(1,0,0,1,-8.76386,625.149)">
            <path d="M1096.14,1164.02L1105.89,1156.04L1115.2,1165.84L1177.45,1165.35L1190.68,1181.04C1188.72,1207.5 1146.57,1212.4 1146.57,1212.4L1096.14,1164.02Z"/>
        </g>
        <g transform="matrix(1,0,0,1,-8.76386,625.149)">
            <path d="M1099.52,1167.81L1097.07,1219.76L1046.59,1200.15L1045.12,1159.96L1091.19,1158.49L1099.52,1167.81Z"/>
        </g>
        <g transform="matrix(1,0,0,1,-8.76386,625.149)">
            <path d="M1090.7,1053.98L1094.13,1095.15L1115.69,1094.17C1115.69,1094.17 1125.01,1084.36 1122.56,1068.68L1175.98,1077.01C1175.98,1077.01 1179.9,1117.2 1143.14,1126.02L1161.27,1157.39L1041.69,1149.55L1038.26,1060.35L1051.98,1051.53L1090.7,1053.98Z"/>
        </g>
        <g transform="matrix(1,0,0,1,-8.76386,625.149)">
            <path d="M1181.84,1067.19C1179.77,1066.13 1036.3,1033.39 1036.3,1033.39L1048.06,1000.07L1107.36,1000.56C1184.89,1016.93 1181.51,1065.94 1181.84,1067.19Z"/>
        </g>
        <g transform="matrix(1,0,0,1,-8.76386,625.149)">
            <path d="M865.249,1142.2L915.24,1145.63L917.2,1219.14L865.739,1201.5L865.249,1142.2Z"/>
        </g>
        <g transform="matrix(1,0,0,1,-8.76386,625.149)">
            <path d="M990.716,1028L990.226,1035.35L919.161,1039.76L918.18,1070.64L961.31,1075.54L965.721,1120.14L919.651,1119.65L916.71,1135.34L864.759,1135.34L864.759,1044.66L876.521,1042.7L876.031,1035.84L848.095,1032.41L855.937,1007.91L990.716,1028Z"/>
        </g>
    </g>
</svg>
